<svg xmlns="http://www.w3.org/2000/svg" xmlns:xlink="http://www.w3.org/1999/xlink" width="1080" zoomAndPan="magnify" viewBox="0 0 810 809.999993" height="1080" preserveAspectRatio="xMidYMid meet" version="1.0"><rect x="-81" width="972" fill="#ffffff" y="-80.999999" height="971.999992" fill-opacity="1"/><rect x="-81" width="972" fill="#40e0d0" y="-80.999999" height="971.999992" fill-opacity="1"/><path fill="#e6bbb3" d="M 517.773438 673.078125 L 287.523438 673.078125 C 249.574219 673.078125 217.3125 646.128906 212.363281 609.644531 C 212.179688 608.726562 212.179688 607.8125 211.996094 606.894531 C 206.863281 563.445312 242.058594 525.3125 287.339844 525.3125 L 517.773438 525.3125 C 587.800781 525.679688 587.800781 673.078125 517.773438 673.078125 Z M 517.773438 673.078125 " fill-opacity="1" fill-rule="nonzero"/><path fill="#ad4d3a" d="M 526.386719 526.414062 C 563.601562 561.796875 553.335938 661.710938 495.773438 661.710938 L 265.523438 661.710938 C 256.910156 661.710938 248.660156 660.425781 240.777344 657.859375 C 253.792969 667.578125 269.925781 673.261719 287.339844 673.261719 L 517.589844 673.261719 C 584.867188 673.078125 587.800781 538.144531 526.386719 526.414062 Z M 526.386719 526.414062 " fill-opacity="0.2" fill-rule="nonzero"/><path fill="#ffffff" d="M 222.992188 582.878906 C 222.992188 582.878906 205.578125 502.761719 494.859375 552.261719 C 599.714844 570.226562 222.992188 582.878906 222.992188 582.878906 Z M 222.992188 582.878906 " fill-opacity="0.2" fill-rule="nonzero"/><path fill="#ad4d3a" d="M 515.023438 531.363281 C 479.824219 534.480469 444.628906 535.210938 409.429688 535.394531 C 374.234375 535.394531 338.851562 534.480469 303.839844 531.363281 C 339.035156 528.246094 374.234375 527.511719 409.429688 527.328125 C 444.628906 527.511719 480.191406 528.0625 515.023438 531.363281 Z M 515.023438 531.363281 " fill-opacity="1" fill-rule="nonzero"/><path fill="#e6bbb3" d="M 277.625 698.925781 C 275.789062 711.210938 274.140625 720.742188 273.039062 726.609375 C 272.308594 731.007812 271.941406 733.390625 271.941406 733.390625 L 220.246094 775.007812 L 145.082031 921.671875 C 145.082031 921.671875 56.722656 534.296875 71.570312 403.03125 C 86.421875 271.765625 176.0625 292.851562 186.878906 294.683594 C 208.511719 298.167969 225.742188 308.25 239.859375 323.097656 C 313.738281 401.566406 290.273438 615.144531 277.625 698.925781 Z M 277.625 698.925781 " fill-opacity="1" fill-rule="evenodd"/><path fill="#ad4d3a" d="M 277.625 698.925781 C 275.789062 711.210938 274.140625 720.742188 273.039062 726.609375 L 148.566406 726.609375 C 148.566406 726.609375 89.71875 487.179688 120.886719 398.632812 C 143.800781 333.734375 207.59375 323.648438 239.859375 322.734375 C 313.738281 401.566406 290.273438 615.144531 277.625 698.925781 Z M 277.625 698.925781 " fill-opacity="0.2" fill-rule="evenodd"/><path fill="#e6bbb3" d="M 532.4375 662.078125 L 532.4375 852.921875 C 532.4375 876.941406 464.058594 955.589844 440.046875 955.589844 L 172.582031 955.589844 C 151.5 955.589844 134.265625 938.355469 134.265625 917.273438 L 89.71875 703.507812 L 391.28125 698.742188 C 442.429688 698.925781 532.4375 611.292969 532.4375 662.078125 Z M 532.4375 662.078125 " fill-opacity="1" fill-rule="evenodd"/><path fill="#ff848d" d="M 592.566406 531.179688 C 592.566406 531.179688 435.644531 544.746094 418.414062 534.664062 C 418.230469 534.664062 381.382812 491.214844 361.949219 441.164062 C 347.835938 404.863281 337.019531 372.597656 339.769531 368.199219 C 342.335938 363.796875 348.566406 359.582031 353.152344 357.566406 C 356.085938 356.28125 361.035156 354.632812 367.449219 353.53125 C 394.949219 349.132812 421.894531 336.300781 446.277344 453.265625 C 448.109375 461.695312 448.292969 471.414062 463.144531 471.964844 C 502.191406 472.695312 578.085938 488.28125 578.085938 488.28125 C 578.816406 512.113281 592.566406 531.179688 592.566406 531.179688 Z M 592.566406 531.179688 " fill-opacity="1" fill-rule="nonzero"/><path fill="#ff848d" d="M 476.34375 733.757812 C 360.117188 751.542969 350.769531 690.125 352.417969 502.945312 C 353.519531 369.117188 355.902344 346.199219 363.785156 344.914062 C 405.765625 337.949219 417.863281 365.632812 431.246094 402.113281 C 450.859375 456.195312 451.226562 624.492188 476.34375 733.757812 Z M 476.34375 733.757812 " fill-opacity="1" fill-rule="nonzero"/><path fill="#ffe9d7" d="M 590 560.878906 L 539.769531 545.113281 L 612.367188 432.730469 L 662.410156 448.496094 Z M 590 560.878906 " fill-opacity="1" fill-rule="nonzero"/><path fill="#ea9678" d="M 629.414062 513.394531 C 631.613281 509.363281 636.015625 508.628906 637.296875 504.046875 C 638.03125 501.480469 636.929688 497.996094 635.464844 495.613281 C 629.78125 486.078125 608.699219 484.796875 603.75 486.996094 C 595.316406 490.664062 620.613281 500.195312 621.714844 501.296875 C 623.363281 502.945312 620.613281 500.378906 608.148438 495.796875 C 604.484375 494.511719 594.765625 491.03125 593.300781 493.230469 C 590.550781 497.078125 597.148438 501.113281 600.632812 502.945312 C 611.082031 508.628906 613.832031 508.078125 614.75 509.363281 C 614.933594 509.546875 611.632812 507.710938 598.800781 504.960938 C 595.867188 504.230469 593.851562 506.613281 596.96875 510.460938 C 599.167969 513.210938 604.847656 517.796875 611.082031 519.8125 C 613.648438 520.730469 611.449219 520.546875 603.199219 520.179688 C 601 520.179688 597.332031 521.828125 600.632812 524.210938 C 603.382812 526.046875 613.648438 531.179688 618.597656 531.546875 C 623.730469 531.546875 626.664062 518.164062 629.414062 513.394531 Z M 629.414062 513.394531 " fill-opacity="1" fill-rule="nonzero"/><path fill="#632621" d="M 416.574219 218.9375 C 416.695312 220.324219 416.726562 221.71875 416.667969 223.113281 C 416.605469 224.511719 416.453125 225.90625 416.210938 227.300781 C 415.964844 228.691406 415.632812 230.078125 415.210938 231.453125 C 414.789062 232.828125 414.277344 234.1875 413.675781 235.53125 C 413.078125 236.878906 412.394531 238.199219 411.625 239.5 C 410.855469 240.800781 410.003906 242.074219 409.074219 243.320312 C 408.140625 244.5625 407.132812 245.773438 406.046875 246.949219 C 404.960938 248.128906 403.804688 249.265625 402.574219 250.359375 C 401.34375 251.457031 400.050781 252.511719 398.691406 253.515625 C 397.328125 254.523438 395.910156 255.480469 394.429688 256.386719 C 392.953125 257.292969 391.421875 258.148438 389.835938 258.945312 C 388.253906 259.742188 386.628906 260.484375 384.957031 261.167969 C 383.285156 261.847656 381.574219 262.46875 379.832031 263.027344 C 378.085938 263.589844 376.3125 264.082031 374.511719 264.515625 C 372.710938 264.945312 370.890625 265.3125 369.054688 265.609375 C 367.214844 265.910156 365.363281 266.140625 363.503906 266.304688 C 361.644531 266.464844 359.78125 266.5625 357.917969 266.589844 C 356.054688 266.617188 354.199219 266.574219 352.351562 266.464844 C 350.503906 266.351562 348.671875 266.175781 346.855469 265.929688 C 345.042969 265.683594 343.25 265.367188 341.484375 264.988281 C 339.71875 264.609375 337.988281 264.164062 336.289062 263.65625 C 334.59375 263.144531 332.9375 262.570312 331.320312 261.9375 C 329.707031 261.300781 328.144531 260.609375 326.628906 259.855469 C 325.113281 259.101562 323.652344 258.289062 322.253906 257.425781 C 320.851562 256.558594 319.511719 255.640625 318.238281 254.671875 C 316.964844 253.703125 315.757812 252.6875 314.625 251.625 C 313.488281 250.5625 312.429688 249.457031 311.445312 248.308594 C 310.460938 247.164062 309.554688 245.980469 308.730469 244.761719 C 307.90625 243.542969 307.167969 242.292969 306.511719 241.011719 C 305.851562 239.730469 305.285156 238.425781 304.800781 237.097656 C 304.316406 235.769531 303.925781 234.421875 303.621094 233.054688 C 303.316406 231.691406 303.105469 230.3125 302.984375 228.925781 C 302.859375 227.539062 302.832031 226.148438 302.890625 224.75 C 302.953125 223.351562 303.105469 221.957031 303.347656 220.566406 C 303.589844 219.171875 303.921875 217.789062 304.347656 216.410156 C 304.769531 215.035156 305.28125 213.675781 305.878906 212.332031 C 306.480469 210.988281 307.164062 209.664062 307.933594 208.363281 C 308.703125 207.0625 309.550781 205.789062 310.484375 204.542969 C 311.417969 203.300781 312.425781 202.089844 313.511719 200.914062 C 314.597656 199.738281 315.753906 198.601562 316.984375 197.503906 C 318.210938 196.40625 319.507812 195.355469 320.867188 194.347656 C 322.226562 193.339844 323.648438 192.382812 325.125 191.476562 C 326.605469 190.570312 328.136719 189.71875 329.71875 188.917969 C 331.300781 188.121094 332.929688 187.378906 334.601562 186.699219 C 336.273438 186.015625 337.980469 185.394531 339.726562 184.835938 C 341.472656 184.277344 343.242188 183.78125 345.042969 183.351562 C 346.84375 182.917969 348.664062 182.554688 350.503906 182.253906 C 352.34375 181.957031 354.191406 181.726562 356.054688 181.5625 C 357.914062 181.398438 359.773438 181.300781 361.636719 181.277344 C 363.5 181.25 365.355469 181.289062 367.203125 181.402344 C 369.054688 181.511719 370.886719 181.6875 372.699219 181.9375 C 374.515625 182.183594 376.304688 182.496094 378.070312 182.875 C 379.835938 183.253906 381.566406 183.699219 383.265625 184.210938 C 384.964844 184.71875 386.621094 185.292969 388.234375 185.925781 C 389.847656 186.5625 391.414062 187.257812 392.929688 188.011719 C 394.445312 188.765625 395.902344 189.574219 397.304688 190.441406 C 398.707031 191.304688 400.042969 192.222656 401.320312 193.191406 C 402.59375 194.160156 403.796875 195.175781 404.933594 196.238281 C 406.066406 197.300781 407.128906 198.40625 408.113281 199.554688 C 409.097656 200.699219 410 201.882812 410.824219 203.101562 C 411.648438 204.324219 412.390625 205.574219 413.046875 206.851562 C 413.703125 208.132812 414.273438 209.4375 414.757812 210.765625 C 415.238281 212.097656 415.632812 213.445312 415.9375 214.808594 C 416.238281 216.171875 416.453125 217.550781 416.574219 218.9375 Z M 416.574219 218.9375 " fill-opacity="1" fill-rule="nonzero"/><path fill="#ea9678" d="M 317.585938 360.683594 C 358.835938 402.664062 401.914062 380.847656 408.148438 370.03125 C 393.113281 364.164062 383.765625 357.933594 379.367188 349.316406 C 376.617188 343.816406 375.515625 337.765625 375.882812 329.699219 C 376.25 322.734375 377.714844 315.582031 380.28125 308.066406 C 380.464844 307.699219 380.464844 307.148438 380.648438 306.78125 C 387.25 300.734375 332.804688 299.265625 332.253906 297.25 C 331.152344 296.882812 330.96875 297.433594 330.96875 298.167969 C 330.96875 298.53125 330.96875 299.265625 330.785156 299.816406 C 330.785156 300.183594 329.871094 304.398438 328.769531 310.265625 C 326.753906 319.617188 323.636719 333.734375 321.070312 344.550781 C 319.054688 353.53125 317.585938 360.132812 317.585938 360.683594 Z M 317.585938 360.683594 " fill-opacity="1" fill-rule="evenodd"/><path fill="#6c312b" d="M 380.464844 308.25 C 377.898438 315.765625 376.433594 323.097656 376.066406 329.882812 C 352.417969 324.382812 336.285156 320.53125 328.769531 310.632812 C 330.054688 304.765625 330.96875 300.550781 330.785156 300.183594 C 330.96875 299.816406 330.785156 299.082031 330.96875 298.53125 L 332.070312 298.714844 Z M 380.464844 308.25 " fill-opacity="0.2" fill-rule="nonzero"/><path fill="#72352d" d="M 286.238281 297.800781 C 288.4375 304.582031 293.023438 309.898438 297.972656 312.097656 C 302.921875 314.667969 308.054688 314.300781 312.085938 311.917969 C 316.121094 309.351562 318.6875 305.132812 319.785156 300.550781 C 320.152344 299.265625 320.519531 297.800781 320.519531 296.515625 C 320.703125 293.398438 320.519531 289.917969 319.421875 286.800781 C 317.769531 282.214844 315.019531 278.367188 311.539062 275.433594 C 307.871094 272.5 303.289062 270.667969 298.523438 270.851562 C 298.339844 270.851562 298.15625 270.851562 297.789062 270.851562 C 293.207031 271.582031 289.355469 274.332031 287.15625 279.101562 C 284.589844 284.234375 283.855469 291.015625 286.238281 297.800781 Z M 286.238281 297.800781 " fill-opacity="1" fill-rule="evenodd"/><path fill="#4a1a16" d="M 308.238281 305.132812 C 300.722656 309.167969 290.089844 304.765625 285.140625 293.398438 C 285.324219 295.050781 285.871094 296.332031 286.238281 297.984375 C 288.4375 304.765625 293.023438 310.082031 297.972656 312.28125 C 302.921875 314.847656 308.054688 314.484375 312.085938 312.097656 C 316.121094 309.53125 318.6875 305.316406 319.785156 300.734375 C 320.886719 296.148438 320.886719 291.382812 319.421875 286.800781 C 319.238281 285.882812 318.6875 284.785156 318.320312 283.867188 C 319.054688 291.933594 315.753906 301.101562 308.238281 305.132812 Z M 308.238281 305.132812 " fill-opacity="0.2" fill-rule="evenodd"/><path fill="#ffffff" d="M 299.988281 274.515625 C 295.957031 275.433594 291.738281 277.449219 289.722656 282.214844 C 288.988281 283.867188 288.621094 285.332031 288.074219 287.351562 C 288.074219 286.984375 288.074219 286.25 288.074219 285.699219 C 288.074219 284.601562 288.257812 283.5 288.4375 282.214844 C 289.355469 277.816406 292.289062 275.25 295.773438 274.515625 C 297.054688 273.96875 298.523438 273.96875 299.988281 274.515625 Z M 299.988281 274.515625 " fill-opacity="0.2" fill-rule="nonzero"/><path fill="#4a1a16" d="M 286.789062 279.46875 C 286.054688 283.132812 286.054688 287.167969 287.15625 291.199219 C 288.988281 297.984375 293.207031 303.300781 297.789062 305.683594 C 302.554688 308.433594 307.503906 308.433594 311.902344 306.050781 C 316.304688 303.851562 318.871094 299.449219 320.335938 295.234375 C 320.152344 301.648438 317.402344 308.433594 311.722656 312.097656 C 307.6875 314.667969 302.371094 314.847656 297.605469 312.28125 C 292.839844 309.714844 288.074219 304.765625 285.871094 297.984375 C 283.855469 291.015625 284.589844 284.234375 286.789062 279.46875 Z M 286.789062 279.46875 " fill-opacity="0.2" fill-rule="evenodd"/><path fill="#4a1a16" d="M 302.921875 284.417969 C 307.871094 291.75 314.652344 296.148438 320.703125 296.699219 C 320.886719 293.582031 320.703125 290.101562 319.605469 286.984375 C 317.953125 282.398438 315.203125 278.550781 311.722656 275.617188 C 308.238281 272.683594 303.472656 270.851562 298.707031 271.035156 C 298.523438 271.035156 298.339844 271.035156 297.972656 271.035156 C 298.15625 275.433594 299.988281 279.832031 302.921875 284.417969 Z M 302.921875 284.417969 " fill-opacity="0.2" fill-rule="nonzero"/><path fill="#ea9678" d="M 412.914062 264.617188 C 411.8125 358.117188 307.136719 331.164062 303.839844 247.75 C 302.921875 222.449219 313.921875 205.585938 329.136719 196.417969 C 349.300781 184.320312 376.800781 186.335938 393.847656 201.917969 C 403.5625 210.71875 409.980469 224.46875 409.0625 242.066406 C 409.246094 243.71875 409.796875 246.46875 410.347656 249.585938 C 410.347656 249.765625 410.347656 249.949219 410.53125 250.316406 C 411.628906 256 412.914062 262.234375 412.914062 264.617188 Z M 412.914062 264.617188 " fill-opacity="1" fill-rule="evenodd"/><path fill="#6c312b" d="M 307.136719 240.234375 C 306.40625 231.433594 307.871094 223.734375 310.070312 216.769531 C 305.671875 225.199219 303.472656 235.652344 304.023438 247.933594 C 306.953125 321.449219 388.898438 351.332031 408.695312 292.667969 C 384.316406 340.515625 313.1875 330.25 307.136719 240.234375 Z M 307.136719 240.234375 " fill-opacity="0.1" fill-rule="evenodd"/><path fill="#72352d" d="M 294.304688 260.402344 C 299.4375 270.117188 320.335938 300 317.953125 292.484375 C 314.105469 281.117188 324.738281 265.898438 328.21875 259.117188 C 329.136719 257.46875 329.320312 256.367188 329.136719 255.632812 C 323.085938 242.433594 321.621094 216.769531 321.621094 216.769531 C 321.621094 216.769531 321.621094 216.585938 321.4375 216.402344 C 320.335938 212.367188 312.820312 185.785156 296.503906 190 C 294.304688 190.734375 291.921875 191.835938 289.539062 193.667969 C 268.273438 208.882812 289.171875 250.683594 294.304688 260.402344 Z M 294.304688 260.402344 " fill-opacity="1" fill-rule="evenodd"/><path fill="#4a1a16" d="M 296.871094 190 C 297.605469 194.585938 308.421875 200.453125 311.171875 204.117188 C 319.785156 215.484375 323.453125 248.484375 328.402344 259.117188 C 329.320312 257.46875 329.503906 256.367188 329.320312 255.632812 C 323.269531 242.433594 321.804688 216.769531 321.804688 216.769531 C 321.804688 216.769531 321.804688 216.585938 321.621094 216.402344 C 320.703125 212 313.1875 185.601562 296.871094 190 Z M 296.871094 190 " fill-opacity="0.2" fill-rule="nonzero"/><path fill="#4a1a16" d="M 297.054688 194.585938 C 291.1875 197.519531 286.421875 203.019531 284.957031 209.617188 C 284.222656 212.734375 284.222656 216.21875 284.589844 219.703125 C 285.324219 234.550781 290.089844 249.21875 299.621094 260.765625 C 300.722656 262.050781 301.636719 263.332031 303.105469 264.433594 C 302.371094 263.699219 302.003906 263.332031 301.453125 262.601562 C 293.570312 253.066406 288.804688 241.515625 286.605469 229.417969 C 285.691406 224.652344 285.507812 219.703125 285.507812 214.566406 C 285.507812 212.917969 285.691406 211.453125 285.871094 209.800781 C 286.789062 203.203125 291.371094 197.703125 297.054688 194.585938 Z M 297.054688 194.585938 " fill-opacity="1" fill-rule="nonzero"/><path fill="#4a1a16" d="M 299.621094 196.785156 C 293.9375 199.902344 289.355469 205.953125 288.257812 212.183594 C 287.523438 215.300781 287.890625 218.785156 288.074219 222.269531 C 289.171875 237.117188 294.855469 251.601562 304.570312 262.785156 C 305.671875 263.882812 306.769531 265.351562 308.054688 266.449219 C 307.320312 265.71875 306.953125 265.351562 306.40625 264.617188 C 298.15625 255.265625 292.839844 243.902344 290.273438 231.984375 C 289.171875 227.21875 288.621094 222.269531 288.4375 217.5 C 288.4375 215.851562 288.4375 214.382812 288.804688 212.734375 C 289.90625 206.132812 293.9375 200.453125 299.621094 196.785156 Z M 299.621094 196.785156 " fill-opacity="1" fill-rule="nonzero"/><path fill="#ffffff" d="M 311.171875 228.132812 C 310.4375 226.851562 309.519531 225.382812 308.972656 224.101562 C 308.789062 223.734375 308.605469 223.367188 308.238281 223.183594 C 306.589844 222.269531 305.304688 225.019531 303.472656 225.019531 C 302.738281 223.734375 302.1875 222.269531 301.636719 221.167969 C 301.453125 220.800781 301.273438 220.25 300.722656 220.25 C 300.355469 220.25 299.988281 220.433594 299.621094 220.617188 C 298.523438 220.800781 297.789062 219.335938 297.421875 218.050781 C 296.140625 216.035156 293.390625 216.21875 291.003906 215.300781 C 288.257812 214.203125 286.421875 210.71875 287.15625 207.785156 C 286.054688 207.785156 285.140625 207.601562 284.039062 207.601562 C 283.671875 204.851562 285.140625 201.734375 287.707031 200.636719 C 288.4375 200.453125 288.988281 200.269531 289.722656 199.535156 C 290.824219 198.433594 290.640625 196.417969 291.738281 195.5 C 291.554688 195.867188 291.371094 196.417969 291.371094 197.152344 C 292.289062 197.152344 293.207031 197.335938 294.121094 197.335938 C 293.753906 198.984375 294.488281 200.453125 295.957031 201.367188 C 296.320312 201.550781 296.871094 201.734375 297.054688 202.101562 C 297.972656 203.019531 297.054688 204.851562 297.972656 205.769531 C 298.707031 206.683594 299.988281 206.5 301.089844 206.867188 C 303.289062 207.785156 302.921875 211.632812 304.9375 212.917969 C 306.039062 213.835938 307.6875 213.652344 308.972656 214.019531 C 310.804688 214.75 314.105469 216.953125 314.652344 218.96875 C 314.835938 221.535156 312.269531 225.933594 311.171875 228.132812 Z M 311.171875 228.132812 " fill-opacity="0.2" fill-rule="nonzero"/><path fill="#f16666" d="M 344.71875 264.066406 C 338.667969 263.152344 332.984375 265.351562 332.070312 269.015625 C 330.96875 272.683594 335.003906 276.351562 341.234375 277.265625 C 347.285156 278.183594 352.96875 275.984375 353.882812 272.316406 C 354.984375 268.648438 350.953125 264.984375 344.71875 264.066406 Z M 344.71875 264.066406 " fill-opacity="1" fill-rule="evenodd"/><path fill="#f16666" d="M 398.429688 256.550781 C 403.199219 253.984375 408.695312 254.535156 410.53125 257.285156 C 412.363281 260.035156 409.796875 264.25 405.03125 266.632812 C 400.265625 269.199219 394.765625 268.648438 392.933594 265.898438 C 391.097656 263.152344 393.664062 258.75 398.429688 256.550781 Z M 398.429688 256.550781 " fill-opacity="1" fill-rule="evenodd"/><path fill="#000000" d="M 345.085938 240.234375 C 343.984375 240.417969 338.667969 241.515625 337.570312 241.152344 C 338.484375 242.25 339.402344 243.71875 340.320312 244.816406 C 341.050781 245.734375 341.96875 248.667969 341.96875 249.21875 C 342.703125 253.800781 345.085938 257.101562 347.652344 256.734375 C 350.21875 256.367188 351.5 252.332031 350.769531 247.933594 C 350.035156 243.167969 347.46875 239.683594 345.085938 240.234375 Z M 345.085938 240.234375 " fill-opacity="1" fill-rule="nonzero"/><path fill="#ffffff" d="M 342.703125 248.300781 C 343.070312 249.402344 343.617188 250.867188 344.351562 251.96875 C 345.085938 253.066406 345.453125 254.535156 346.183594 255.632812 C 345.085938 254.902344 344.167969 253.800781 343.433594 252.515625 C 342.703125 251.050781 342.519531 249.402344 342.703125 248.300781 Z M 342.703125 248.300781 " fill-opacity="1" fill-rule="nonzero"/><path fill="#ffffff" d="M 342.886719 244.085938 C 343.253906 245.183594 343.253906 246.285156 342.886719 247.566406 C 342.519531 247.199219 342.152344 246.46875 342.152344 245.734375 C 342.335938 245 342.519531 244.449219 342.886719 244.085938 Z M 342.886719 244.085938 " fill-opacity="1" fill-rule="nonzero"/><path fill="#ffffff" d="M 349.117188 250.867188 C 349.851562 249.949219 351.132812 249.585938 352.234375 249.949219 C 351.316406 250.867188 350.21875 251.050781 349.117188 250.867188 Z M 349.117188 250.867188 " fill-opacity="1" fill-rule="nonzero"/><path fill="#4a1914" d="M 345.636719 224.652344 C 346.550781 226.667969 343.617188 228.316406 337.9375 232.902344 C 332.984375 236.933594 328.585938 241.152344 327.488281 240.417969 C 326.570312 240.050781 329.136719 234.550781 333.902344 229.050781 C 338.667969 224.101562 342.519531 219.882812 345.636719 224.652344 Z M 345.636719 224.652344 " fill-opacity="1" fill-rule="nonzero"/><path fill="#4a1914" d="M 344.535156 221.167969 C 345.269531 221.351562 345.820312 222.085938 346.550781 222.816406 C 346.917969 223.550781 347.46875 224.652344 347.46875 225.382812 C 346.183594 224.101562 345.269531 222.632812 344.535156 221.167969 Z M 344.535156 221.167969 " fill-opacity="1" fill-rule="nonzero"/><path fill="#4a1914" d="M 346 220.25 C 346.734375 220.433594 347.652344 221.167969 348.019531 221.902344 C 348.75 222.816406 348.933594 223.734375 348.933594 224.652344 C 347.652344 223.183594 346.734375 221.71875 346 220.25 Z M 346 220.25 " fill-opacity="1" fill-rule="nonzero"/><path fill="#000000" d="M 394.765625 233.085938 C 395.863281 232.902344 400.449219 231.800781 401.363281 230.882812 C 401.179688 231.984375 400.632812 233.632812 400.632812 234.917969 C 400.449219 235.835938 400.816406 238.585938 400.816406 239.316406 C 401.914062 243.351562 401.179688 247.015625 398.980469 247.75 C 396.78125 248.484375 394.03125 245.734375 392.933594 241.699219 C 391.832031 237.484375 392.382812 233.816406 394.765625 233.085938 Z M 394.765625 233.085938 " fill-opacity="1" fill-rule="nonzero"/><path fill="#ffffff" d="M 399.898438 238.765625 C 399.898438 239.867188 400.082031 241.335938 400.082031 242.433594 C 400.082031 243.535156 400.082031 245 400.082031 246.101562 C 400.816406 245.183594 401.179688 243.902344 401.179688 242.433594 C 400.816406 241.335938 400.449219 239.867188 399.898438 238.765625 Z M 399.898438 238.765625 " fill-opacity="1" fill-rule="nonzero"/><path fill="#ffffff" d="M 397.882812 235.652344 C 398.066406 236.75 398.613281 237.667969 399.164062 238.402344 C 399.347656 238.035156 399.347656 237.300781 398.980469 236.566406 C 398.796875 236.015625 398.429688 235.652344 397.882812 235.652344 Z M 397.882812 235.652344 " fill-opacity="1" fill-rule="nonzero"/><path fill="#ffffff" d="M 395.679688 243.535156 C 394.765625 243.167969 393.480469 243.351562 392.75 244.265625 C 393.847656 244.449219 394.765625 244.265625 395.679688 243.535156 Z M 395.679688 243.535156 " fill-opacity="1" fill-rule="nonzero"/><path fill="#4a1914" d="M 387.980469 217.5 C 387.980469 219.152344 390.183594 219.335938 394.765625 220.433594 C 399.164062 221.535156 402.648438 223 403.199219 222.269531 C 403.746094 221.535156 400.449219 219.152344 396.230469 217.132812 C 391.832031 214.933594 388.347656 213.652344 387.980469 217.5 Z M 387.980469 217.5 " fill-opacity="1" fill-rule="nonzero"/><path fill="#4a1914" d="M 387.433594 214.933594 C 387.066406 215.300781 386.699219 215.851562 386.699219 216.585938 C 386.699219 217.316406 386.699219 217.867188 386.882812 218.417969 C 387.25 217.316406 387.433594 216.035156 387.433594 214.933594 Z M 387.433594 214.933594 " fill-opacity="1" fill-rule="nonzero"/><path fill="#4a1914" d="M 386.332031 214.75 C 385.964844 214.933594 385.597656 215.667969 385.414062 216.402344 C 385.230469 217.132812 385.414062 217.683594 385.597656 218.234375 C 386.148438 216.953125 386.332031 215.851562 386.332031 214.75 Z M 386.332031 214.75 " fill-opacity="1" fill-rule="nonzero"/><path fill="#4a1914" d="M 374.78125 242.984375 C 375.148438 247.75 375.148438 257.285156 379.550781 260.21875 C 381.566406 261.5 383.582031 263.152344 384.316406 265.351562 C 385.050781 268.832031 381.382812 270.484375 378.632812 271.035156 C 380.464844 270.300781 382.664062 269.199219 383.582031 267.367188 C 384.5 265.351562 382.664062 263.515625 381.015625 262.417969 C 379.914062 261.5 378.449219 260.765625 377.53125 259.667969 C 374.050781 255.632812 374.050781 248.117188 374.78125 242.984375 Z M 374.78125 242.984375 " fill-opacity="1" fill-rule="nonzero"/><path fill="#ffffff" d="M 362.316406 280.199219 C 366.898438 282.765625 371.851562 284.234375 377.167969 282.949219 C 378.816406 282.582031 380.648438 282.035156 382.300781 281.300781 C 380.097656 284.417969 375.882812 286.25 371.851562 286.066406 C 368 285.882812 364.152344 283.5 362.316406 280.199219 Z M 362.316406 280.199219 " fill-opacity="1" fill-rule="nonzero"/><path fill="#000000" d="M 336.835938 259.484375 C 336.101562 259.667969 335.1875 259.117188 334.820312 258.566406 C 327.488281 253.984375 320.703125 251.601562 318.320312 252.152344 C 317.953125 252.332031 317.953125 252.332031 317.585938 252.515625 C 317.21875 253.433594 315.9375 253.800781 315.019531 253.433594 C 314.105469 253.066406 313.738281 252.152344 314.105469 251.234375 C 314.835938 250.132812 315.9375 249.21875 317.21875 248.667969 C 322.351562 247.015625 331.703125 252.332031 337.019531 255.449219 C 337.753906 256 337.019531 259.484375 336.835938 259.484375 Z M 336.835938 259.484375 " fill-opacity="1" fill-rule="nonzero"/><path fill="#000000" d="M 360.300781 273.96875 C 351.867188 277.816406 341.96875 273.785156 337.753906 264.800781 C 333.535156 255.816406 337.386719 245.734375 345.636719 241.882812 C 353.882812 238.035156 363.96875 242.066406 368.183594 251.050781 C 372.398438 260.035156 368.550781 270.117188 360.300781 273.96875 Z M 346.550781 244.085938 C 339.21875 247.566406 336.101562 256.367188 339.769531 264.066406 C 343.433594 271.765625 352.050781 275.433594 359.382812 271.949219 C 366.71875 268.46875 369.832031 259.667969 366.167969 251.96875 C 362.683594 244.265625 353.882812 240.601562 346.550781 244.085938 Z M 346.550781 244.085938 " fill-opacity="1" fill-rule="nonzero"/><path fill="#000000" d="M 405.398438 262.050781 C 397.699219 265.71875 387.980469 261.316406 384.132812 252.515625 C 380.28125 243.71875 383.214844 233.632812 390.914062 229.96875 C 398.613281 226.300781 408.332031 230.699219 412.179688 239.5 C 416.03125 248.300781 413.097656 258.382812 405.398438 262.050781 Z M 391.832031 231.984375 C 385.230469 234.917969 382.480469 243.71875 385.964844 251.601562 C 389.449219 259.300781 397.699219 263.152344 404.296875 260.035156 C 410.898438 257.101562 413.648438 248.300781 410.164062 240.417969 C 406.679688 232.535156 398.429688 229.050781 391.832031 231.984375 Z M 391.832031 231.984375 " fill-opacity="1" fill-rule="nonzero"/><path fill="#000000" d="M 369.101562 255.082031 C 370.382812 250.683594 380.648438 250.5 383.949219 247.75 C 387.617188 244.449219 363.785156 248.851562 369.101562 255.082031 Z M 369.101562 255.082031 " fill-opacity="1" fill-rule="nonzero"/><path fill="#ea9678" d="M 314.652344 249.765625 C 319.605469 247.933594 325.835938 251.601562 328.21875 258.015625 C 330.601562 264.433594 328.585938 271.21875 323.453125 273.234375 C 318.503906 275.066406 312.269531 271.398438 309.886719 264.984375 C 307.503906 258.566406 309.519531 251.785156 314.652344 249.765625 Z M 314.652344 249.765625 " fill-opacity="1" fill-rule="evenodd"/><path fill="#ffffff" d="M 320.519531 272.132812 C 320.886719 274.882812 318.871094 277.265625 316.121094 277.632812 C 313.371094 278 310.988281 275.984375 310.621094 273.234375 C 310.253906 270.484375 312.269531 268.101562 315.019531 267.734375 C 317.585938 267.367188 319.96875 269.382812 320.519531 272.132812 Z M 320.519531 272.132812 " fill-opacity="1" fill-rule="nonzero"/><path fill="#7b3e32" d="M 318.136719 253.800781 C 319.785156 256.367188 321.070312 258.75 323.085938 260.765625 C 320.335938 260.21875 318.136719 256.734375 318.136719 253.800781 Z M 318.136719 253.800781 " fill-opacity="1" fill-rule="nonzero"/><path fill="#7b3e32" d="M 314.652344 260.402344 C 317.585938 260.765625 320.335938 261.316406 323.453125 260.765625 C 320.703125 262.601562 316.855469 262.234375 314.652344 260.402344 Z M 314.652344 260.402344 " fill-opacity="1" fill-rule="nonzero"/><path fill="#4a1a16" d="M 303.289062 193.851562 C 298.523438 187.433594 292.839844 176.984375 295.589844 169.101562 C 296.6875 165.433594 298.523438 162.136719 302.003906 159.9375 C 308.054688 156.085938 317.585938 159.019531 324.1875 160.851562 C 339.21875 165.253906 354.433594 169.652344 370.015625 168.367188 C 375.148438 168.003906 380.28125 167.085938 385.230469 165.433594 C 380.28125 166.71875 374.964844 167.636719 370.015625 168.003906 C 357 168.734375 344.351562 165.800781 331.886719 162.136719 C 326.9375 160.851562 321.804688 159.203125 316.855469 158.101562 C 311.90625 157.1875 306.039062 156.453125 301.457031 159.386719 C 297.972656 161.585938 295.957031 165.253906 294.855469 169.101562 C 291.921875 176.984375 297.972656 187.433594 303.289062 193.851562 Z M 303.289062 193.851562 " fill-opacity="1" fill-rule="nonzero"/><path fill="#72352d" d="M 325.835938 216.035156 C 316.304688 216.953125 301.453125 192.933594 301.453125 192.933594 C 301.453125 192.933594 283.671875 156.820312 322.535156 164.152344 C 354.984375 170.019531 403.015625 137.570312 421.714844 183.953125 C 436.011719 219.152344 408.695312 242.617188 408.695312 242.617188 C 408.695312 242.617188 420.0625 180.101562 385.964844 204.667969 C 363.785156 220.617188 355.71875 213.652344 325.835938 216.035156 Z M 325.835938 216.035156 " fill-opacity="1" fill-rule="evenodd"/><path fill="#ffffff" d="M 307.6875 187.433594 C 307.320312 187.070312 306.769531 185.601562 306.769531 185.234375 C 305.855469 182.117188 306.589844 178.453125 308.054688 175.519531 C 311.722656 168.550781 316.671875 168.550781 327.304688 170.019531 C 337.9375 171.667969 349.300781 168.917969 349.300781 168.917969 C 349.300781 168.917969 325.835938 174.050781 323.269531 177.167969 C 320.703125 180.285156 346.734375 176.253906 338.484375 177.351562 C 330.234375 178.453125 314.46875 184.683594 324.921875 184.683594 C 335.371094 184.683594 329.871094 188.71875 326.203125 189.820312 C 322.535156 191.101562 335.917969 193.667969 339.769531 192.933594 C 343.617188 192.019531 350.035156 195.5 342.519531 196.050781 C 335.003906 196.601562 343.433594 203.933594 352.601562 199.535156 C 361.765625 194.953125 368.550781 201.734375 353.335938 206.132812 C 348.386719 207.417969 343.25 208.882812 338.300781 209.617188 C 336.652344 209.800781 335.371094 209.984375 333.71875 210.351562 C 331.703125 210.535156 331.152344 210.535156 329.871094 209.066406 C 328.769531 209.800781 327.121094 209.800781 326.019531 208.703125 C 325.101562 207.785156 324.738281 206.5 324.738281 204.851562 C 324.738281 203.566406 325.101562 201.917969 324.371094 200.816406 C 324.003906 200.453125 323.085938 200.085938 322.351562 200.085938 C 321.253906 200.085938 320.152344 200.269531 318.871094 200.085938 C 317.769531 199.902344 316.671875 199.351562 316.121094 198.25 C 315.386719 196.601562 317.039062 194.769531 316.488281 193.300781 C 316.488281 193.117188 316.304688 192.933594 316.121094 192.566406 C 315.9375 192.386719 315.753906 192.386719 315.386719 192.386719 C 313.371094 192.386719 310.988281 193.117188 309.335938 192.203125 C 309.335938 191.101562 311.171875 190.367188 311.171875 189.269531 C 310.988281 187.800781 308.605469 188.351562 307.6875 187.433594 C 307.6875 187.800781 307.6875 187.433594 307.6875 187.433594 Z M 307.6875 187.433594 " fill-opacity="0.2" fill-rule="evenodd"/><path fill="#ffffff" d="M 414.929688 185.601562 C 413.097656 184.867188 410.898438 180.101562 405.398438 174.96875 C 400.265625 169.835938 391.832031 164.335938 381.566406 162.867188 C 376.433594 163.234375 379.367188 161.585938 385.050781 161.953125 C 390.730469 162.136719 399.164062 164.886719 405.765625 168.917969 C 412.363281 172.769531 417.128906 178.269531 418.78125 182.117188 C 420.246094 185.96875 418.046875 187.984375 414.929688 185.601562 Z M 414.929688 185.601562 " fill-opacity="0.2" fill-rule="evenodd"/><path fill="#4a1a16" d="M 322.71875 163.785156 C 323.085938 163.785156 323.636719 163.96875 324.003906 163.96875 C 323.636719 164.152344 323.269531 164.152344 322.71875 163.785156 C 283.488281 162.136719 305.855469 195.5 305.855469 195.5 C 305.855469 195.5 324.003906 217.316406 333.167969 215.300781 C 362.316406 208.519531 371.300781 214.382812 391.28125 195.316406 C 420.613281 167.453125 419.148438 225.566406 418.964844 229.417969 C 414.195312 237.667969 408.878906 242.066406 408.878906 242.066406 C 408.878906 242.066406 420.246094 179.550781 386.148438 204.117188 C 363.601562 220.25 355.71875 213.285156 325.652344 215.851562 C 316.121094 216.769531 301.273438 192.75 301.273438 192.75 C 301.273438 192.75 283.855469 156.820312 322.71875 163.785156 Z M 322.71875 163.785156 " fill-opacity="0.2" fill-rule="evenodd"/><path fill="#4a1a16" d="M 329.871094 182.484375 C 339.035156 184.683594 354.433594 187.433594 363.050781 183.402344 C 369.464844 180.285156 375.699219 176.617188 382.664062 175.519531 C 388.714844 174.417969 394.765625 175.519531 399.898438 179 C 391.648438 172.953125 382.664062 173.867188 373.5 177.71875 C 369.832031 179.367188 366.167969 181.203125 362.683594 182.851562 C 362.316406 183.035156 361.765625 183.21875 361.035156 183.585938 C 352.785156 186.335938 338.851562 184.320312 329.871094 182.484375 Z M 329.871094 182.484375 " fill-opacity="1" fill-rule="nonzero"/><path fill="#4a1a16" d="M 331.519531 185.96875 C 341.050781 190.367188 357.917969 195.683594 368 191.652344 C 369.285156 190.917969 371.484375 189.820312 372.765625 189.085938 C 380.464844 185.050781 388.714844 180.285156 397.699219 181.203125 C 402.28125 181.570312 406.496094 183.953125 409.980469 187.070312 C 410.347656 187.433594 410.898438 187.984375 411.265625 188.351562 C 407.597656 184.320312 402.832031 181.019531 397.699219 180.46875 C 388.53125 179.367188 379.914062 183.953125 372.214844 188.167969 C 371.484375 188.535156 369.464844 189.820312 368.734375 190.183594 C 366.898438 191.285156 364.699219 191.835938 362.683594 192.019531 C 352.96875 192.933594 340.867188 189.269531 331.519531 185.96875 Z M 331.519531 185.96875 " fill-opacity="1" fill-rule="nonzero"/><path fill="#4a1a16" d="M 302.371094 178.636719 C 302.371094 176.617188 303.472656 174.601562 305.121094 173.136719 C 306.40625 171.851562 308.054688 170.933594 309.703125 170.203125 C 312.453125 169.101562 315.203125 168.367188 318.136719 168.183594 C 321.804688 167.820312 325.652344 168.003906 329.320312 168.183594 C 354.617188 169.285156 372.03125 154.984375 398.066406 161.769531 L 396.414062 161.402344 L 395.679688 161.21875 C 394.582031 161.035156 392.933594 160.484375 391.832031 160.300781 C 386.332031 159.386719 380.648438 159.203125 375.332031 159.9375 C 361.949219 161.585938 349.300781 166.71875 335.550781 167.453125 C 331.886719 167.636719 328.035156 167.453125 324.371094 167.453125 C 320.703125 167.453125 316.855469 167.636719 313.1875 168.734375 C 311.171875 169.101562 309.15625 170.019531 307.320312 171.300781 C 304.753906 172.585938 302.554688 175.519531 302.371094 178.636719 Z M 302.371094 178.636719 " fill-opacity="1" fill-rule="nonzero"/><path fill="#6c312b" d="M 317.585938 360.683594 C 358.835938 402.664062 401.914062 380.847656 408.148438 370.03125 C 393.113281 364.164062 383.765625 357.933594 379.367188 349.316406 C 379.367188 353.347656 379.183594 359.582031 374.601562 362.332031 C 354.25 374.433594 329.136719 354.816406 321.253906 344.914062 C 319.054688 353.53125 317.585938 360.132812 317.585938 360.683594 Z M 317.585938 360.683594 " fill-opacity="0.2" fill-rule="evenodd"/><path fill="#338dbd" d="M 502.007812 658.960938 C 502.742188 663.726562 480.742188 702.410156 471.757812 718.542969 C 469.925781 722.027344 468.644531 724.410156 468.09375 725.324219 C 467.175781 727.160156 464.058594 728.992188 459.292969 730.457031 C 456.542969 731.375 453.425781 732.292969 449.578125 733.207031 C 421.714844 739.625 370.566406 743.660156 353.335938 745.492188 C 322.535156 748.609375 300.171875 738.707031 290.824219 708.277344 C 289.539062 703.691406 288.257812 698.925781 287.339844 693.425781 C 287.15625 691.226562 286.972656 689.027344 286.972656 686.828125 C 286.789062 676.375 289.539062 665.742188 294.671875 655.476562 C 307.320312 630.542969 334.636719 609.460938 365.984375 608.179688 C 373.683594 607.996094 381.382812 608.910156 389.449219 611.109375 C 395.5 612.945312 401.730469 615.695312 408.148438 619.359375 C 411.8125 621.378906 443.527344 627.0625 469.191406 636.226562 C 478.542969 639.710938 487.15625 643.195312 493.023438 647.59375 C 495.039062 648.878906 496.691406 650.527344 497.972656 651.992188 C 500.175781 654.011719 501.457031 656.394531 502.007812 658.960938 Z M 502.007812 658.960938 " fill-opacity="1" fill-rule="nonzero"/><path fill="#338dbd" d="M 649.394531 998.121094 C 638.765625 1001.972656 591.101562 1015.539062 587.800781 1008.9375 C 544.71875 918.371094 504.390625 819.742188 467.910156 753.375 C 467.726562 753.007812 467.175781 752.273438 466.992188 751.726562 C 466.808594 751.359375 466.625 750.992188 466.257812 750.625 L 466.257812 750.441406 C 466.078125 750.074219 465.894531 749.707031 465.527344 749.34375 C 465.160156 748.425781 464.609375 747.507812 464.242188 746.59375 C 464.058594 746.226562 464.058594 745.859375 463.875 745.492188 C 463.511719 744.574219 462.960938 743.476562 462.777344 742.558594 C 462.59375 742.191406 462.59375 741.640625 462.410156 741.277344 C 462.226562 740.910156 462.226562 740.359375 462.042969 739.992188 C 461.859375 739.625 461.859375 739.074219 461.675781 738.707031 C 461.308594 737.425781 460.761719 735.957031 460.578125 734.675781 C 460.394531 733.757812 460.210938 732.84375 459.84375 731.925781 C 459.84375 731.558594 459.660156 731.007812 459.660156 730.640625 C 459.660156 730.457031 459.476562 729.910156 459.476562 729.726562 C 459.476562 729.542969 459.292969 728.992188 459.292969 728.808594 C 458.195312 722.207031 457.644531 715.609375 458.011719 709.007812 C 458.375 698.742188 460.761719 689.210938 463.875 680.59375 C 469.375 666.476562 492.472656 647.59375 497.242188 650.894531 L 503.289062 654.742188 C 534.636719 686.828125 609.800781 838.074219 650.496094 925.15625 C 664.613281 955.589844 673.042969 978.136719 675.425781 983.085938 C 675.792969 984.371094 662.410156 993.355469 649.394531 998.121094 Z M 649.394531 998.121094 " fill-opacity="1" fill-rule="nonzero"/><path fill="#0b3b5c" d="M 471.210938 695.992188 C 472.308594 702.777344 468.09375 714.324219 465.34375 720.375 C 464.976562 721.476562 464.242188 722.390625 463.511719 723.492188 C 464.425781 722.757812 465.34375 721.84375 466.078125 720.925781 C 470.292969 715.792969 474.691406 702.960938 471.210938 695.992188 Z M 471.210938 695.992188 " fill-opacity="1" fill-rule="nonzero"/><path fill="#0b3b5c" d="M 479.640625 703.691406 C 478.910156 710.292969 471.394531 719.824219 467.175781 724.410156 C 466.257812 725.324219 465.527344 726.058594 464.609375 726.609375 C 465.710938 726.425781 466.625 725.691406 467.726562 725.324219 C 473.59375 721.660156 481.109375 711.390625 479.640625 703.691406 Z M 479.640625 703.691406 " fill-opacity="1" fill-rule="nonzero"/><path fill="#562320" d="M 649.394531 998.121094 C 638.765625 1001.972656 591.101562 1015.539062 587.800781 1008.9375 C 544.71875 918.371094 504.390625 819.742188 467.910156 753.375 C 467.726562 753.007812 467.175781 752.273438 466.992188 751.726562 C 466.808594 751.359375 466.625 750.992188 466.257812 750.625 L 466.257812 750.441406 C 466.078125 750.074219 465.894531 749.707031 465.527344 749.34375 C 465.160156 748.425781 464.609375 747.507812 464.242188 746.59375 C 464.058594 746.226562 464.058594 745.859375 463.875 745.492188 C 463.511719 744.574219 462.960938 743.476562 462.777344 742.558594 C 462.59375 742.191406 462.59375 741.640625 462.410156 741.277344 C 462.226562 740.910156 462.226562 740.359375 462.042969 739.992188 C 461.859375 739.625 461.859375 739.074219 461.675781 738.707031 C 461.308594 737.425781 460.761719 735.957031 460.578125 734.675781 C 460.394531 733.757812 460.210938 732.84375 459.84375 731.925781 C 459.84375 731.558594 459.660156 731.007812 459.660156 730.640625 C 459.660156 730.457031 459.476562 729.910156 459.476562 729.726562 C 459.476562 729.542969 459.292969 728.992188 459.292969 728.808594 C 456.359375 730.457031 453.242188 731.742188 449.945312 733.390625 C 422.078125 739.808594 370.933594 743.84375 353.699219 745.675781 C 322.902344 748.792969 300.539062 738.890625 291.1875 708.460938 C 289.90625 703.875 288.621094 699.109375 287.707031 693.609375 C 287.523438 691.410156 287.339844 689.210938 287.339844 687.007812 C 340.320312 698.375 428.3125 677.476562 458.195312 709.007812 C 460.027344 710.84375 461.308594 712.859375 462.777344 714.875 C 463.691406 716.527344 466.441406 697.824219 472.308594 718.542969 C 472.492188 719.460938 472.675781 720.375 473.042969 721.476562 C 490.640625 795.175781 629.414062 972.636719 649.394531 998.121094 Z M 649.394531 998.121094 " fill-opacity="0.2" fill-rule="nonzero"/><path fill="#f4d8d8" d="M 514.472656 678.761719 C 548.9375 750.074219 590.183594 831.289062 623.730469 876.207031 C 590.734375 801.773438 510.988281 672.160156 514.472656 678.761719 Z M 514.472656 678.761719 " fill-opacity="0.2" fill-rule="nonzero"/><path fill="#338dbd" d="M 461.675781 701.859375 C 456.726562 710.292969 446.460938 717.074219 430.878906 723.859375 C 427.394531 725.507812 423.546875 726.792969 419.511719 728.441406 C 415.113281 730.09375 410.714844 731.558594 405.582031 733.390625 C 401.730469 734.675781 397.332031 736.140625 393.113281 737.425781 C 392.75 737.609375 392.199219 737.609375 391.832031 737.792969 C 391.464844 737.976562 390.914062 737.976562 390.730469 738.160156 C 359.015625 748.242188 330.785156 754.292969 307.871094 753.742188 C 277.074219 753.007812 255.808594 740.542969 250.125 709.191406 C 249.207031 704.609375 248.84375 699.660156 248.476562 694.160156 C 248.476562 692.875 248.476562 691.226562 248.476562 689.757812 C 249.207031 678.578125 253.242188 667.578125 260.207031 657.308594 C 275.789062 633.84375 305.488281 616.425781 336.46875 618.996094 C 343.984375 619.726562 351.683594 621.5625 359.382812 624.859375 C 365.25 627.425781 371.117188 630.726562 376.800781 635.128906 C 380.28125 637.695312 411.082031 646.859375 435.460938 659.144531 C 442.976562 662.808594 449.761719 666.84375 455.078125 670.875 C 455.445312 671.242188 455.992188 671.609375 456.359375 671.976562 C 456.726562 672.34375 457.277344 672.894531 458.011719 673.261719 C 459.109375 674.359375 460.210938 675.460938 461.125 676.375 C 462.960938 678.394531 464.242188 680.777344 464.976562 682.792969 C 465.160156 683.710938 465.34375 684.808594 465.34375 685.726562 C 465.894531 692.144531 464.425781 697.277344 461.675781 701.859375 Z M 461.675781 701.859375 " fill-opacity="1" fill-rule="nonzero"/><path fill="#338dbd" d="M 483.308594 973.738281 C 482.574219 1005.453125 481.660156 1028.554688 482.023438 1033.6875 C 482.023438 1034.785156 431.613281 1036.621094 413.28125 1035.335938 C 409.246094 1035.152344 406.679688 1034.605469 406.679688 1034.054688 C 406.496094 1024.703125 397.332031 812.222656 392.382812 745.859375 C 392.382812 745.675781 392.382812 745.125 392.382812 744.941406 C 392.382812 744.757812 392.382812 744.574219 392.382812 744.574219 C 392.199219 742.558594 392.199219 740.175781 392.199219 738.160156 C 392.199219 732.292969 393.113281 726.609375 394.765625 721.109375 C 395.132812 719.277344 395.679688 717.625 396.414062 716.160156 C 400.996094 702.960938 409.0625 691.59375 418.414062 683.527344 C 429.046875 674.359375 441.144531 669.410156 451.410156 671.058594 C 452.328125 671.242188 453.242188 671.242188 453.976562 671.425781 C 454.710938 671.609375 455.078125 671.792969 455.808594 672.160156 C 456.175781 672.34375 456.726562 672.527344 457.09375 672.894531 C 458.742188 673.992188 460.210938 675.460938 461.859375 677.476562 C 462.59375 678.394531 463.144531 679.308594 463.875 680.410156 C 464.609375 681.507812 464.976562 682.609375 465.710938 683.894531 C 486.976562 728.992188 485.324219 885.554688 483.308594 973.738281 Z M 483.308594 973.738281 " fill-opacity="1" fill-rule="nonzero"/><path fill="#0b3b5c" d="M 418.414062 699.660156 C 416.578125 705.710938 408.148438 713.59375 403.382812 717.074219 C 402.464844 717.808594 401.546875 718.175781 400.632812 718.910156 C 401.730469 718.726562 402.832031 718.542969 403.746094 717.992188 C 409.796875 715.425781 418.597656 707.175781 418.414062 699.660156 Z M 418.414062 699.660156 " fill-opacity="1" fill-rule="nonzero"/><path fill="#0b3b5c" d="M 422.8125 709.742188 C 419.328125 714.875 409.246094 719.460938 403.5625 721.109375 C 402.464844 721.292969 401.546875 721.476562 400.449219 721.84375 C 401.546875 722.027344 402.648438 722.027344 403.929688 722.027344 C 409.980469 722.027344 420.796875 717.074219 422.8125 709.742188 Z M 422.8125 709.742188 " fill-opacity="1" fill-rule="nonzero"/><path fill="#f4d8d8" d="M 474.507812 746.773438 C 469.375 834.40625 464.976562 935.789062 471.941406 997.9375 C 479.824219 908.289062 474.875 738.527344 474.507812 746.773438 Z M 474.507812 746.773438 " fill-opacity="0.2" fill-rule="nonzero"/><path fill="#0b3b5c" d="M 421.714844 700.574219 C 421.347656 701.492188 418.230469 723.308594 418.230469 723.308594 C 413.648438 798.109375 417.496094 985.472656 412.730469 1035.152344 C 408.695312 1034.96875 406.128906 1034.421875 406.128906 1033.871094 C 405.949219 1024.519531 396.78125 812.039062 391.832031 745.675781 C 391.832031 745.492188 391.832031 744.941406 391.832031 744.757812 C 391.832031 744.574219 391.832031 744.390625 391.832031 744.390625 C 391.648438 742.375 391.648438 739.992188 391.648438 737.976562 C 391.28125 738.160156 390.730469 738.160156 390.546875 738.34375 C 358.835938 748.425781 330.601562 754.476562 307.6875 753.925781 C 276.890625 753.191406 255.625 740.726562 249.941406 709.375 C 249.941406 707.542969 291.1875 752.09375 395.679688 715.425781 C 417.679688 706.441406 417.128906 705.34375 421.714844 700.574219 Z M 421.714844 700.574219 " fill-opacity="0.2" fill-rule="nonzero"/><path fill="#efcece" d="M 283.855469 640.628906 L 292.65625 563.628906 L 318.503906 342.164062 C 319.785156 363.980469 355.535156 370.949219 397.332031 359.03125 C 402.097656 357.75 408.515625 382.863281 415.113281 419.714844 C 425.5625 478.746094 396.230469 549.328125 403.015625 606.894531 C 410.714844 668.492188 283.855469 640.628906 283.855469 640.628906 Z M 283.855469 640.628906 " fill-opacity="1" fill-rule="nonzero"/><path fill="#6d6e71" d="M 399.898438 366.730469 C 399.898438 366.730469 391.648438 351.699219 400.265625 352.617188 C 418.230469 354.449219 424.097656 435.296875 424.097656 435.296875 L 443.894531 462.0625 C 445.726562 463.714844 425.929688 531.363281 425.929688 531.363281 C 425.929688 531.363281 417.128906 411.097656 399.898438 366.730469 Z M 399.898438 366.730469 " fill-opacity="0.2" fill-rule="nonzero"/><path fill="#f9f7f4" d="M 375.882812 342.347656 C 372.214844 331.714844 398.796875 346.75 403.382812 351.882812 C 415.847656 366.367188 426.296875 447.214844 426.296875 447.214844 L 439.863281 458.398438 C 441.695312 460.046875 442.976562 462.246094 443.34375 464.445312 L 425.929688 551.34375 C 425.929688 551.34375 383.765625 365.082031 375.882812 342.347656 Z M 375.882812 342.347656 " fill-opacity="1" fill-rule="nonzero"/><path fill="#ff848d" d="M 223.359375 692.144531 C 314.652344 704.425781 384.683594 712.308594 379.914062 657.308594 C 375.882812 609.09375 326.9375 336.117188 319.238281 337.582031 C 295.589844 341.980469 277.441406 346.933594 261.308594 358.480469 C 231.609375 379.566406 224.644531 651.078125 223.359375 692.144531 Z M 223.359375 692.144531 " fill-opacity="1" fill-rule="nonzero"/><path fill="#6d6e71" d="M 322.71875 345.097656 C 322.71875 345.097656 315.019531 342.347656 307.136719 346.382812 C 297.789062 351.332031 331.703125 417.332031 331.703125 417.332031 L 324.371094 448.128906 C 323.453125 450.332031 323.269531 452.898438 324.1875 455.097656 L 359.382812 530.8125 C 359.015625 530.628906 327.121094 392.582031 322.71875 345.097656 Z M 322.71875 345.097656 " fill-opacity="0.2" fill-rule="nonzero"/><path fill="#f9f7f4" d="M 322.535156 338.5 C 321.253906 333.914062 310.804688 335.933594 306.222656 340.332031 C 300.722656 345.832031 335.003906 428.699219 335.003906 428.699219 L 327.667969 444.648438 C 326.753906 446.847656 326.570312 449.414062 327.488281 451.613281 L 361.402344 537.230469 C 361.402344 537.414062 332.4375 371.683594 322.535156 338.5 Z M 322.535156 338.5 " fill-opacity="1" fill-rule="nonzero"/><path fill="#ea9678" d="M 373.683594 543.828125 C 373.683594 543.828125 377.167969 534.664062 382.300781 532.277344 C 393.664062 526.597656 395.863281 523.113281 404.480469 515.230469 C 410.347656 509.546875 410.53125 515.414062 411.082031 517.0625 C 411.996094 519.8125 411.996094 535.210938 411.996094 535.210938 L 396.78125 546.761719 C 396.597656 546.761719 370.015625 554.644531 373.683594 543.828125 Z M 373.683594 543.828125 " fill-opacity="1" fill-rule="nonzero"/><path fill="#5a595c" d="M 428.128906 575.363281 L 394.214844 468.664062 L 399.898438 466.832031 L 433.8125 573.527344 L 434.179688 581.410156 C 434.179688 582.328125 433.261719 582.511719 432.527344 581.777344 Z M 428.128906 575.363281 " fill-opacity="1" fill-rule="nonzero"/><path fill="#e62e4e" d="M 370.75 582.878906 C 365.25 564.910156 320.152344 535.027344 289.90625 539.980469 C 289.90625 539.980469 312.453125 431.265625 310.804688 406.699219 C 309.703125 391.113281 220.246094 467.746094 229.226562 594.429688 C 229.59375 604.878906 384.5 627.792969 370.75 582.878906 Z M 370.75 582.878906 " fill-opacity="0.2" fill-rule="nonzero"/><path fill="#ea9678" d="M 425.929688 551.34375 C 426.847656 544.929688 424.644531 539.0625 422.078125 534.480469 C 423.179688 534.113281 424.28125 533.195312 425.929688 531.363281 C 427.761719 529.164062 426.664062 519.996094 421.347656 518.164062 C 409.613281 514.128906 392.199219 539.796875 369.832031 550.796875 C 360.117188 555.5625 347.835938 558.3125 347.835938 558.3125 C 347.835938 558.3125 345.820312 581.042969 350.769531 582.328125 C 357.183594 583.976562 370.75 589.660156 397.515625 580.679688 C 408.332031 577.011719 415.480469 572.796875 420.246094 568.945312 C 433.078125 558.3125 425.378906 554.09375 425.929688 551.34375 Z M 425.929688 551.34375 " fill-opacity="1" fill-rule="nonzero"/><path fill="#ff848d" d="M 376.984375 596.078125 C 372.398438 581.960938 385.597656 537.414062 373.5 533.378906 C 373.5 533.378906 312.820312 540.710938 282.390625 545.84375 C 282.390625 545.84375 319.421875 425.214844 317.769531 401.015625 C 316.671875 385.429688 310.070312 363.617188 295.039062 355.730469 C 290.640625 353.53125 283.304688 351.148438 278.539062 351.699219 C 266.441406 352.980469 253.976562 360.316406 247.191406 369.480469 C 240.410156 378.648438 207.046875 453.996094 205.394531 583.429688 C 204.84375 630.175781 376.984375 596.078125 376.984375 596.078125 Z M 376.984375 596.078125 " fill-opacity="1" fill-rule="nonzero"/><path fill="#e62e4e" d="M 221.894531 458.945312 C 221.894531 455.097656 222.628906 451.246094 222.992188 447.398438 C 223.726562 443.546875 224.277344 439.699219 225.558594 436.03125 C 226.660156 432.179688 227.761719 428.515625 229.410156 424.847656 C 230.328125 423.015625 231.242188 421.179688 232.160156 419.714844 C 233.261719 418.0625 234.359375 416.597656 236.011719 415.3125 C 234.910156 416.964844 233.992188 418.429688 233.261719 420.265625 C 232.34375 422.097656 231.976562 423.929688 231.242188 425.398438 C 229.960938 429.0625 229.042969 432.730469 227.761719 436.214844 C 226.476562 439.699219 225.742188 443.730469 224.828125 447.398438 C 224.277344 451.429688 222.992188 455.28125 221.894531 458.945312 Z M 221.894531 458.945312 " fill-opacity="0.2" fill-rule="nonzero"/><path fill="#e62e4e" d="M 283.304688 353.898438 C 325.46875 368.933594 309.886719 419.53125 301.273438 451.980469 C 314.289062 420.8125 328.035156 365.449219 283.304688 353.898438 Z M 283.304688 353.898438 " fill-opacity="1" fill-rule="nonzero"/><path fill="#e62e4e" d="M 280.007812 546.761719 C 275.238281 548.410156 269.925781 551.160156 265.707031 554.644531 C 261.125 558.3125 257.273438 562.527344 254.890625 566.929688 C 258.925781 563.996094 263.324219 560.511719 267.90625 557.210938 C 271.941406 553.546875 276.339844 549.878906 280.007812 546.761719 Z M 280.007812 546.761719 " fill-opacity="1" fill-rule="nonzero"/><path fill="#e62e4e" d="M 275.238281 544.746094 C 270.105469 544.5625 263.875 545.113281 258.007812 546.761719 C 252.140625 548.59375 246.640625 551.160156 242.425781 554.277344 C 247.558594 552.996094 253.242188 551.34375 258.925781 549.695312 C 264.425781 548.046875 270.289062 546.578125 275.238281 544.746094 Z M 275.238281 544.746094 " fill-opacity="1" fill-rule="nonzero"/><path fill="#e6bbb3" d="M 366.535156 771.523438 L 136.285156 771.523438 C 98.335938 771.523438 66.070312 744.574219 61.121094 708.09375 C 60.9375 707.175781 60.9375 706.257812 60.753906 705.34375 C 55.621094 661.894531 90.820312 623.761719 136.101562 623.761719 L 366.535156 623.761719 C 436.746094 624.128906 436.746094 771.523438 366.535156 771.523438 Z M 366.535156 771.523438 " fill-opacity="1" fill-rule="nonzero"/><path fill="#ad4d3a" d="M 375.148438 624.859375 C 412.546875 660.242188 402.464844 760.160156 344.71875 760.160156 L 114.285156 760.160156 C 105.667969 760.160156 97.417969 758.875 89.535156 756.308594 C 102.554688 766.023438 118.683594 771.707031 136.101562 771.707031 L 366.351562 771.707031 C 433.628906 771.523438 436.5625 636.777344 375.148438 624.859375 Z M 375.148438 624.859375 " fill-opacity="0.2" fill-rule="nonzero"/><path fill="#ffffff" d="M 71.753906 681.507812 C 71.753906 681.507812 54.339844 601.394531 343.617188 650.894531 C 448.476562 668.675781 71.753906 681.507812 71.753906 681.507812 Z M 71.753906 681.507812 " fill-opacity="0.2" fill-rule="nonzero"/><path fill="#ad4d3a" d="M 363.785156 629.8125 C 328.585938 632.925781 293.390625 633.660156 258.191406 633.84375 C 222.992188 633.84375 187.613281 632.925781 152.597656 629.8125 C 187.796875 626.695312 222.992188 625.960938 258.191406 625.777344 C 293.753906 625.960938 328.953125 626.695312 363.785156 629.8125 Z M 363.785156 629.8125 " fill-opacity="1" fill-rule="nonzero"/></svg>