<svg xmlns="http://www.w3.org/2000/svg" xmlns:xlink="http://www.w3.org/1999/xlink" width="500" zoomAndPan="magnify" viewBox="0 0 375 374.999991" height="500" preserveAspectRatio="xMidYMid meet" version="1.0"><defs><clipPath id="f63017d0c7"><path d="M 23.722656 58 L 206 58 L 206 239 L 23.722656 239 Z M 23.722656 58 " clip-rule="nonzero"/></clipPath><clipPath id="de50c73f9e"><path d="M 63 233 L 159 233 L 159 316.714844 L 63 316.714844 Z M 63 233 " clip-rule="nonzero"/></clipPath><clipPath id="1a22357eea"><path d="M 168 75 L 351.472656 75 L 351.472656 275 L 168 275 Z M 168 75 " clip-rule="nonzero"/></clipPath></defs><g clip-path="url(#f63017d0c7)"><path fill="#40e0d0" d="M 200.152344 180.636719 C 186.867188 197.851562 162.464844 205.546875 157.523438 229.402344 C 156.804688 229.613281 156.085938 229.804688 155.367188 230 C 147.933594 232.507812 140.046875 232.769531 132.632812 230.929688 C 128.722656 229.964844 124.953125 228.402344 121.429688 226.285156 C 119.835938 222.179688 116.628906 218.972656 111.824219 216.675781 C 67.441406 253.839844 23.25 241.621094 23.738281 200.691406 C 23.96875 180.636719 38.726562 171.664062 55.238281 162.019531 C 64.496094 156.621094 58.0625 146.558594 50.890625 150.628906 C 42.445312 155.414062 34.308594 160.988281 27.070312 167.507812 C 26.878906 166.507812 26.703125 165.492188 26.542969 164.457031 C 26.019531 161.144531 25.652344 157.742188 25.457031 154.21875 C 25.421875 143.546875 28.789062 133.027344 35.222656 124.28125 C 43.164062 113.484375 55.046875 106.3125 68.230469 104.332031 C 72.242188 95.304688 83.953125 86.644531 103.355469 78.335938 C 114.75 72.710938 128.019531 72.203125 139.78125 76.953125 C 176.59375 122.421875 141.0625 132.640625 105.09375 148.382812 C 88.40625 155.675781 72.664062 165.949219 66.984375 189.347656 C 64.25 200.636719 76.414062 201.917969 78.570312 192.609375 C 82.515625 175.625 92.839844 166.875 109.914062 159.410156 C 128.214844 151.414062 156.171875 142.144531 164.675781 122.511719 C 172.878906 103.5625 160.800781 83.769531 149.160156 69.378906 L 147.988281 67.941406 C 157.417969 59.667969 170.300781 56.371094 182.605469 59.210938 C 191.546875 61.261719 199.347656 66.347656 204.816406 73.394531 C 190.6875 85.242188 177.839844 99.773438 181.574219 119.722656 C 183.589844 130.503906 189.917969 139.234375 196.085938 147.996094 C 199.417969 152.730469 203.851562 158.917969 205.148438 164.617188 C 206.550781 170.734375 203.851562 175.902344 200.171875 180.65625 Z M 200.152344 180.636719 " fill-opacity="1" fill-rule="evenodd"/></g><g clip-path="url(#de50c73f9e)"><path fill="#40e0d0" d="M 108.476562 233.699219 C 123.796875 242.128906 141.695312 244.601562 158.714844 240.621094 C 160.0625 247.019531 154.105469 250.226562 146.671875 254.347656 C 120.835938 268.652344 136.382812 265.164062 121.640625 288.863281 C 108.84375 308.949219 71.367188 317.980469 64.128906 316.679688 C 58.148438 315.59375 81.289062 308.390625 81.023438 286.179688 C 80.816406 266.164062 80.027344 261.832031 68.894531 251.507812 C 84.023438 251.472656 98.414062 245.003906 108.476562 233.699219 Z M 108.476562 233.699219 " fill-opacity="1" fill-rule="evenodd"/></g><g clip-path="url(#1a22357eea)"><path fill="#769eab" d="M 179.855469 255.03125 C 162.695312 240.621094 165.707031 224.636719 188.882812 207.105469 C 263.800781 152.785156 163.816406 136.304688 202.011719 92.570312 C 207.375 86.433594 213.667969 81.019531 221.363281 78.109375 C 231.109375 74.425781 242.101562 74.671875 251.863281 79.179688 C 265.414062 85.417969 274.300781 98.757812 274.8125 113.675781 C 286.519531 109.136719 299.824219 111.871094 308.816406 120.652344 C 317.792969 129.433594 320.824219 142.667969 316.546875 154.484375 C 328.78125 155.78125 339.6875 162.808594 345.925781 173.414062 C 351.765625 183.335938 352.886719 195.308594 349.046875 206.089844 L 348.996094 206.070312 C 348.589844 207.125 348.117188 208.175781 347.609375 209.191406 C 342.015625 204.40625 334.636719 201.078125 326.011719 199.164062 L 324.3125 198.78125 L 323.925781 197.394531 L 323.910156 197.359375 L 323.890625 197.324219 C 315.304688 167.894531 296.984375 154.570312 272.621094 155.816406 C 268.148438 156.203125 262.207031 157.269531 254.792969 158.988281 C 252.898438 159.53125 250.988281 160.164062 249.058594 160.847656 C 247.167969 161.53125 245.257812 162.265625 243.3125 163.074219 C 234.246094 166.839844 238.964844 177.957031 247.9375 174.1875 C 251.757812 172.589844 255.40625 171.292969 258.894531 170.277344 C 261.207031 169.609375 263.46875 169.066406 265.644531 168.648438 C 291.199219 163.828125 307.308594 176.691406 314.007812 207.230469 C 327.3125 211.59375 341.824219 212.734375 346.699219 227.105469 C 348.328125 231.910156 348.484375 237.222656 346.941406 242.324219 C 343.910156 252.382812 334.902344 259.464844 324.402344 260.027344 C 321.367188 267.125 315.003906 272.261719 307.414062 273.699219 C 302.15625 274.714844 296.773438 273.859375 292.164062 271.402344 C 288.660156 268.351562 284.835938 266.128906 280.699219 264.726562 C 274.214844 270.527344 265.433594 273.191406 256.71875 271.824219 C 248.65625 270.5625 241.558594 266.023438 237.070312 259.394531 C 246.289062 244.707031 250.375 233.855469 253.84375 216.976562 C 255.617188 208.367188 244.011719 204.773438 242.066406 214.519531 C 239.105469 229.457031 234.546875 247.179688 221.363281 255.871094 C 211.652344 262.289062 199.191406 263.832031 187.902344 259.378906 C 184.992188 258.238281 182.308594 256.765625 179.855469 254.996094 Z M 179.855469 255.03125 " fill-opacity="1" fill-rule="evenodd"/></g></svg>